<mxfile host="app.diagrams.net" agent="Mozilla/5.0 (Windows NT 10.0; Win64; x64) AppleWebKit/537.36 (KHTML, like Gecko) Chrome/130.0.0.0 Safari/537.36" version="24.7.17">
  <diagram name="第 1 页" id="9ZV4XIX57Y0x2iMAB2M_">
    <mxGraphModel dx="633" dy="403" grid="1" gridSize="10" guides="1" tooltips="1" connect="1" arrows="1" fold="1" page="1" pageScale="1" pageWidth="827" pageHeight="1169" math="0" shadow="0">
      <root>
        <mxCell id="0" />
        <mxCell id="1" parent="0" />
        <mxCell id="irmAYUr5-CBn2hTuVvSj-1" value="CLOSED" style="rounded=0;whiteSpace=wrap;html=1;" vertex="1" parent="1">
          <mxGeometry x="120" y="40" width="80" height="40" as="geometry" />
        </mxCell>
        <mxCell id="irmAYUr5-CBn2hTuVvSj-2" value="CLOSED" style="rounded=0;whiteSpace=wrap;html=1;" vertex="1" parent="1">
          <mxGeometry x="520" y="40" width="80" height="40" as="geometry" />
        </mxCell>
        <mxCell id="irmAYUr5-CBn2hTuVvSj-4" value="客户端" style="text;html=1;align=center;verticalAlign=middle;whiteSpace=wrap;rounded=0;" vertex="1" parent="1">
          <mxGeometry x="130" y="10" width="60" height="30" as="geometry" />
        </mxCell>
        <mxCell id="irmAYUr5-CBn2hTuVvSj-5" value="服务端" style="text;html=1;align=center;verticalAlign=middle;whiteSpace=wrap;rounded=0;" vertex="1" parent="1">
          <mxGeometry x="530" y="10" width="60" height="30" as="geometry" />
        </mxCell>
        <mxCell id="irmAYUr5-CBn2hTuVvSj-6" value="LISTEN" style="rounded=0;whiteSpace=wrap;html=1;" vertex="1" parent="1">
          <mxGeometry x="520" y="80" width="80" height="40" as="geometry" />
        </mxCell>
        <mxCell id="irmAYUr5-CBn2hTuVvSj-7" value="SYN_SENT" style="rounded=0;whiteSpace=wrap;html=1;" vertex="1" parent="1">
          <mxGeometry x="120" y="80" width="80" height="80" as="geometry" />
        </mxCell>
        <mxCell id="irmAYUr5-CBn2hTuVvSj-8" value="SYN_RCVD" style="rounded=0;whiteSpace=wrap;html=1;" vertex="1" parent="1">
          <mxGeometry x="520" y="120" width="80" height="80" as="geometry" />
        </mxCell>
        <mxCell id="irmAYUr5-CBn2hTuVvSj-9" value="ESTABLISHED" style="rounded=0;whiteSpace=wrap;html=1;" vertex="1" parent="1">
          <mxGeometry x="120" y="160" width="80" height="200" as="geometry" />
        </mxCell>
        <mxCell id="irmAYUr5-CBn2hTuVvSj-10" value="Established" style="rounded=0;whiteSpace=wrap;html=1;" vertex="1" parent="1">
          <mxGeometry x="520" y="200" width="80" height="200" as="geometry" />
        </mxCell>
        <mxCell id="irmAYUr5-CBn2hTuVvSj-11" value="" style="endArrow=classic;html=1;rounded=0;exitX=1;exitY=0;exitDx=0;exitDy=0;entryX=0;entryY=1;entryDx=0;entryDy=0;" edge="1" parent="1" source="irmAYUr5-CBn2hTuVvSj-7" target="irmAYUr5-CBn2hTuVvSj-6">
          <mxGeometry width="50" height="50" relative="1" as="geometry">
            <mxPoint x="370" y="160" as="sourcePoint" />
            <mxPoint x="420" y="110" as="targetPoint" />
          </mxGeometry>
        </mxCell>
        <mxCell id="irmAYUr5-CBn2hTuVvSj-16" value="SYN&lt;div&gt;seq=x&lt;/div&gt;" style="edgeLabel;html=1;align=center;verticalAlign=middle;resizable=0;points=[];" vertex="1" connectable="0" parent="irmAYUr5-CBn2hTuVvSj-11">
          <mxGeometry x="-0.0197" y="2" relative="1" as="geometry">
            <mxPoint as="offset" />
          </mxGeometry>
        </mxCell>
        <mxCell id="irmAYUr5-CBn2hTuVvSj-12" value="" style="endArrow=classic;html=1;rounded=0;entryX=1;entryY=1;entryDx=0;entryDy=0;exitX=0;exitY=0;exitDx=0;exitDy=0;" edge="1" parent="1" source="irmAYUr5-CBn2hTuVvSj-8" target="irmAYUr5-CBn2hTuVvSj-7">
          <mxGeometry width="50" height="50" relative="1" as="geometry">
            <mxPoint x="370" y="160" as="sourcePoint" />
            <mxPoint x="420" y="110" as="targetPoint" />
          </mxGeometry>
        </mxCell>
        <mxCell id="irmAYUr5-CBn2hTuVvSj-17" value="SYN+ACK&lt;div&gt;seq=y，ack=x+1&lt;/div&gt;" style="edgeLabel;html=1;align=center;verticalAlign=middle;resizable=0;points=[];" vertex="1" connectable="0" parent="irmAYUr5-CBn2hTuVvSj-12">
          <mxGeometry x="0.0214" y="-4" relative="1" as="geometry">
            <mxPoint as="offset" />
          </mxGeometry>
        </mxCell>
        <mxCell id="irmAYUr5-CBn2hTuVvSj-13" value="" style="endArrow=classic;html=1;rounded=0;entryX=0;entryY=1;entryDx=0;entryDy=0;" edge="1" parent="1" target="irmAYUr5-CBn2hTuVvSj-8">
          <mxGeometry width="50" height="50" relative="1" as="geometry">
            <mxPoint x="200" y="160" as="sourcePoint" />
            <mxPoint x="420" y="110" as="targetPoint" />
          </mxGeometry>
        </mxCell>
        <mxCell id="irmAYUr5-CBn2hTuVvSj-18" value="ACK&lt;div&gt;seq=x+1，ack=y+1&lt;/div&gt;" style="edgeLabel;html=1;align=center;verticalAlign=middle;resizable=0;points=[];" vertex="1" connectable="0" parent="irmAYUr5-CBn2hTuVvSj-13">
          <mxGeometry x="-0.031" y="1" relative="1" as="geometry">
            <mxPoint as="offset" />
          </mxGeometry>
        </mxCell>
        <mxCell id="irmAYUr5-CBn2hTuVvSj-22" value="" style="shape=curlyBracket;whiteSpace=wrap;html=1;rounded=1;labelPosition=left;verticalLabelPosition=middle;align=right;verticalAlign=middle;" vertex="1" parent="1">
          <mxGeometry x="90" y="40" width="20" height="120" as="geometry" />
        </mxCell>
        <mxCell id="irmAYUr5-CBn2hTuVvSj-23" value="三次握手" style="text;html=1;align=center;verticalAlign=middle;resizable=0;points=[];autosize=1;strokeColor=none;fillColor=none;" vertex="1" parent="1">
          <mxGeometry x="20" y="85" width="70" height="30" as="geometry" />
        </mxCell>
        <mxCell id="irmAYUr5-CBn2hTuVvSj-28" value="" style="endArrow=classic;html=1;rounded=0;entryX=0;entryY=1;entryDx=0;entryDy=0;" edge="1" parent="1">
          <mxGeometry width="50" height="50" relative="1" as="geometry">
            <mxPoint x="200" y="360" as="sourcePoint" />
            <mxPoint x="520" y="400" as="targetPoint" />
          </mxGeometry>
        </mxCell>
        <mxCell id="irmAYUr5-CBn2hTuVvSj-29" value="FIN+ACK&lt;div&gt;seq=x3，ack=y3&lt;/div&gt;" style="edgeLabel;html=1;align=center;verticalAlign=middle;resizable=0;points=[];" vertex="1" connectable="0" parent="irmAYUr5-CBn2hTuVvSj-28">
          <mxGeometry x="-0.031" y="1" relative="1" as="geometry">
            <mxPoint as="offset" />
          </mxGeometry>
        </mxCell>
        <mxCell id="irmAYUr5-CBn2hTuVvSj-30" value="" style="endArrow=classic;html=1;rounded=0;entryX=1;entryY=1;entryDx=0;entryDy=0;exitX=0;exitY=0;exitDx=0;exitDy=0;" edge="1" parent="1">
          <mxGeometry width="50" height="50" relative="1" as="geometry">
            <mxPoint x="520" y="265" as="sourcePoint" />
            <mxPoint x="200" y="305" as="targetPoint" />
          </mxGeometry>
        </mxCell>
        <mxCell id="irmAYUr5-CBn2hTuVvSj-31" value="ACK&lt;div&gt;seq=y2，ack=x2+100&lt;/div&gt;" style="edgeLabel;html=1;align=center;verticalAlign=middle;resizable=0;points=[];" vertex="1" connectable="0" parent="irmAYUr5-CBn2hTuVvSj-30">
          <mxGeometry x="0.0214" y="-4" relative="1" as="geometry">
            <mxPoint as="offset" />
          </mxGeometry>
        </mxCell>
        <mxCell id="irmAYUr5-CBn2hTuVvSj-32" value="FIN_WAIT_1" style="rounded=0;whiteSpace=wrap;html=1;" vertex="1" parent="1">
          <mxGeometry x="120" y="360" width="80" height="80" as="geometry" />
        </mxCell>
        <mxCell id="irmAYUr5-CBn2hTuVvSj-33" value="" style="endArrow=classic;html=1;rounded=0;entryX=1;entryY=1;entryDx=0;entryDy=0;exitX=0;exitY=0;exitDx=0;exitDy=0;" edge="1" parent="1">
          <mxGeometry width="50" height="50" relative="1" as="geometry">
            <mxPoint x="520" y="400" as="sourcePoint" />
            <mxPoint x="200" y="440" as="targetPoint" />
          </mxGeometry>
        </mxCell>
        <mxCell id="irmAYUr5-CBn2hTuVvSj-34" value="ACK&lt;div&gt;seq=y3，ack=x3+1&lt;/div&gt;" style="edgeLabel;html=1;align=center;verticalAlign=middle;resizable=0;points=[];" vertex="1" connectable="0" parent="irmAYUr5-CBn2hTuVvSj-33">
          <mxGeometry x="0.0214" y="-4" relative="1" as="geometry">
            <mxPoint as="offset" />
          </mxGeometry>
        </mxCell>
        <mxCell id="irmAYUr5-CBn2hTuVvSj-35" value="CLOSE_WAIT" style="rounded=0;whiteSpace=wrap;html=1;" vertex="1" parent="1">
          <mxGeometry x="520" y="400" width="80" height="60" as="geometry" />
        </mxCell>
        <mxCell id="irmAYUr5-CBn2hTuVvSj-37" value="" style="endArrow=classic;html=1;rounded=0;entryX=1;entryY=1;entryDx=0;entryDy=0;exitX=0;exitY=0;exitDx=0;exitDy=0;" edge="1" parent="1">
          <mxGeometry width="50" height="50" relative="1" as="geometry">
            <mxPoint x="520" y="460" as="sourcePoint" />
            <mxPoint x="200" y="500" as="targetPoint" />
          </mxGeometry>
        </mxCell>
        <mxCell id="irmAYUr5-CBn2hTuVvSj-38" value="FIN&lt;div&gt;seq=y3，ack=x3+1&lt;/div&gt;" style="edgeLabel;html=1;align=center;verticalAlign=middle;resizable=0;points=[];" vertex="1" connectable="0" parent="irmAYUr5-CBn2hTuVvSj-37">
          <mxGeometry x="0.0214" y="-4" relative="1" as="geometry">
            <mxPoint as="offset" />
          </mxGeometry>
        </mxCell>
        <mxCell id="irmAYUr5-CBn2hTuVvSj-39" value="FIN_WAIT_2" style="rounded=0;whiteSpace=wrap;html=1;" vertex="1" parent="1">
          <mxGeometry x="120" y="440" width="80" height="60" as="geometry" />
        </mxCell>
        <mxCell id="irmAYUr5-CBn2hTuVvSj-40" value="TIME_WAIT&lt;div&gt;=2MSL&lt;/div&gt;" style="rounded=0;whiteSpace=wrap;html=1;" vertex="1" parent="1">
          <mxGeometry x="120" y="500" width="80" height="160" as="geometry" />
        </mxCell>
        <mxCell id="irmAYUr5-CBn2hTuVvSj-41" value="LAST_ACK" style="rounded=0;whiteSpace=wrap;html=1;" vertex="1" parent="1">
          <mxGeometry x="520" y="460" width="80" height="80" as="geometry" />
        </mxCell>
        <mxCell id="irmAYUr5-CBn2hTuVvSj-42" value="" style="endArrow=classic;html=1;rounded=0;entryX=0;entryY=1;entryDx=0;entryDy=0;" edge="1" parent="1">
          <mxGeometry width="50" height="50" relative="1" as="geometry">
            <mxPoint x="200" y="500" as="sourcePoint" />
            <mxPoint x="520" y="540" as="targetPoint" />
          </mxGeometry>
        </mxCell>
        <mxCell id="irmAYUr5-CBn2hTuVvSj-43" value="ACK&lt;div&gt;seq=x3+1，ack=y3+1&lt;/div&gt;" style="edgeLabel;html=1;align=center;verticalAlign=middle;resizable=0;points=[];" vertex="1" connectable="0" parent="irmAYUr5-CBn2hTuVvSj-42">
          <mxGeometry x="-0.031" y="1" relative="1" as="geometry">
            <mxPoint as="offset" />
          </mxGeometry>
        </mxCell>
        <mxCell id="irmAYUr5-CBn2hTuVvSj-44" value="CLOSED" style="rounded=0;whiteSpace=wrap;html=1;" vertex="1" parent="1">
          <mxGeometry x="520" y="540" width="80" height="180" as="geometry" />
        </mxCell>
        <mxCell id="irmAYUr5-CBn2hTuVvSj-45" value="CLOSED" style="rounded=0;whiteSpace=wrap;html=1;" vertex="1" parent="1">
          <mxGeometry x="120" y="660" width="80" height="60" as="geometry" />
        </mxCell>
        <mxCell id="irmAYUr5-CBn2hTuVvSj-46" value="" style="shape=curlyBracket;whiteSpace=wrap;html=1;rounded=1;labelPosition=left;verticalLabelPosition=middle;align=right;verticalAlign=middle;" vertex="1" parent="1">
          <mxGeometry x="90" y="160" width="20" height="200" as="geometry" />
        </mxCell>
        <mxCell id="irmAYUr5-CBn2hTuVvSj-47" value="" style="shape=curlyBracket;whiteSpace=wrap;html=1;rounded=1;labelPosition=left;verticalLabelPosition=middle;align=right;verticalAlign=middle;" vertex="1" parent="1">
          <mxGeometry x="90" y="360" width="20" height="360" as="geometry" />
        </mxCell>
        <mxCell id="irmAYUr5-CBn2hTuVvSj-48" value="四次挥手" style="text;html=1;align=center;verticalAlign=middle;resizable=0;points=[];autosize=1;strokeColor=none;fillColor=none;" vertex="1" parent="1">
          <mxGeometry x="20" y="525" width="70" height="30" as="geometry" />
        </mxCell>
        <mxCell id="irmAYUr5-CBn2hTuVvSj-49" value="数据传输" style="text;html=1;align=center;verticalAlign=middle;resizable=0;points=[];autosize=1;strokeColor=none;fillColor=none;" vertex="1" parent="1">
          <mxGeometry x="20" y="265" width="70" height="30" as="geometry" />
        </mxCell>
        <mxCell id="irmAYUr5-CBn2hTuVvSj-50" value="" style="endArrow=classic;html=1;rounded=0;entryX=0;entryY=1;entryDx=0;entryDy=0;" edge="1" parent="1">
          <mxGeometry width="50" height="50" relative="1" as="geometry">
            <mxPoint x="200" y="225" as="sourcePoint" />
            <mxPoint x="520" y="265" as="targetPoint" />
          </mxGeometry>
        </mxCell>
        <mxCell id="irmAYUr5-CBn2hTuVvSj-51" value="ACK&lt;div&gt;seq=x2，ack=y2&lt;/div&gt;&lt;div&gt;len=100&lt;/div&gt;" style="edgeLabel;html=1;align=center;verticalAlign=middle;resizable=0;points=[];" vertex="1" connectable="0" parent="irmAYUr5-CBn2hTuVvSj-50">
          <mxGeometry x="-0.031" y="1" relative="1" as="geometry">
            <mxPoint as="offset" />
          </mxGeometry>
        </mxCell>
        <mxCell id="irmAYUr5-CBn2hTuVvSj-52" value="......" style="text;html=1;align=center;verticalAlign=middle;resizable=0;points=[];autosize=1;strokeColor=none;fillColor=none;" vertex="1" parent="1">
          <mxGeometry x="340" y="310" width="40" height="30" as="geometry" />
        </mxCell>
      </root>
    </mxGraphModel>
  </diagram>
</mxfile>
